<svg viewBox="0 0 24 24" xmlns="http://www.w3.org/2000/svg">
	<path fill-rule="evenodd" clip-rule="evenodd" d="M12 4.966c-3.126 0-5.08 1.563-5.862 4.69 1.173-1.564 2.54-2.15 4.104-1.76.891.224 1.529.87 2.235 1.587C13.625 10.65 14.957 12 17.862 12c3.126 0 5.08-1.563 5.86-4.69-1.171 1.564-2.54 2.15-4.102 1.76-.892-.224-1.53-.87-2.235-1.587-1.15-1.166-2.48-2.517-5.385-2.517ZM6.138 12c-3.125 0-5.079 1.563-5.86 4.689 1.172-1.563 2.54-2.15 4.102-1.759.892.223 1.53.87 2.235 1.587 1.15 1.166 2.48 2.517 5.385 2.517 3.126 0 5.08-1.564 5.862-4.69-1.173 1.564-2.54 2.15-4.104 1.759-.891-.223-1.529-.87-2.234-1.586C10.374 13.35 9.044 12 6.139 12z" style="stroke-width:.603712" />
</svg>
