<svg version="1.1" xmlns="http://www.w3.org/2000/svg" viewBox="0 0 32 32">
<title>favicon-nimble</title>
<path fill="#878787" d="M27.333 0h-22.667c-2.533 0-4.667 2.133-4.667 4.667v22.667c0 2.533 2.133 4.667 4.667 4.667h22.667c2.533 0 4.667-2.133 4.667-4.667v-22.667c0-2.533-2.133-4.667-4.667-4.667z"></path>
<path fill="#fff" d="M24.667 8h-6.667c-1.133 0-2 0.867-2 2v12c0 1.133 0.867 2 2 2h6.667c1.133 0 2-0.867 2-2v-12c0-1.133-0.867-2-2-2z"></path>
<path fill="#fff" d="M12 8h-5.333c-0.733 0-1.333 0.6-1.333 1.333v1.333c0 0.733 0.6 1.333 1.333 1.333h5.333c0.733 0 1.333-0.6 1.333-1.333v-1.333c0-0.733-0.533-1.333-1.333-1.333z"></path>
<path fill="#fff" d="M12 14h-5.333c-0.733 0-1.333 0.6-1.333 1.333v1.333c0 0.733 0.6 1.333 1.333 1.333h5.333c0.733 0 1.333-0.6 1.333-1.333v-1.333c0-0.733-0.533-1.333-1.333-1.333z"></path>
</svg>
